# xmcd
#
# Track frame offsets: 
#        150
#        12126
#        25150
#        37126
#        50626
#        61606
#        72398
#        86185
#        99941
#        115104
#        126334
#        139619
#        152702
#        163290
#        177723
#        192027
#        204261
#        220756
#        235004
#        250494
#
# Disc length: 3515 seconds
#
# Revision: 0
# Processed by: cddbd v1.5.2PL0 Copyright (c) Steve Scherf et al.
# Submitted via: ExactAudioCopyFreeDBPlugin 1.0
#
DISCID=1a0db914
DTITLE=Tammy Wynette - 2013 - The Essential Tammy Wynette Cd 2
DYEAR=2013
DGENRE=
TTITLE0='til I Get It Right
TTITLE1=Kids Say The Darndest Things
TTITLE2=Another Lonely Song
TTITLE3=Woman To Woman
TTITLE4=(You Make Me Want To Be) A Mother
TTITLE5=I Still Believe In Fairy Tales
TTITLE6='til I Can Make It On My Own
TTITLE7=Golden Ring (with George Jones
TTITLE8=You And Me
TTITLE9=(Let's Get Together) One Last Time
TTITLE10=One Of A Kind
TTITLE11=Womanhood
TTITLE12=They Call It Making Love
TTITLE13=No One Else In The World
TTITLE14=Crying In The Rain
TTITLE15=Another Chance
TTITLE16=Sometimes When We Touch (with Mark Gray)
TTITLE17=Your Love (with Ricky Skaggs)
TTITLE18=Talkin' To Myself Again (with The O'Kanes)
TTITLE19=That's The Way It Could Have Been (with Dolly Parton and Lorett
TTITLE19=a Lynn)
EXTD=
EXTT0=
EXTT1=
EXTT2=
EXTT3=
EXTT4=
EXTT5=
EXTT6=
EXTT7=
EXTT8=
EXTT9=
EXTT10=
EXTT11=
EXTT12=
EXTT13=
EXTT14=
EXTT15=
EXTT16=
EXTT17=
EXTT18=
EXTT19=
PLAYORDER=
